<svg width="359" height="316" viewBox="0 0 359 316" fill="none" xmlns="http://www.w3.org/2000/svg">
<path fill-rule="evenodd" clip-rule="evenodd" d="M341.236 17.3484C349.324 26.7531 352.968 42.3427 354.762 61.2952C357.135 89.5778 358.089 123.517 359 158.587C357.82 194.31 357.34 230.338 354.762 255.879C352.728 275.484 348.405 288.613 341.187 296.575C332.005 304.525 314.39 311.239 289.274 312.83C258.726 315.124 221.038 315.099 179.458 316C133.237 315.304 101.891 315.602 69.0059 312.842C43.3529 311.276 26.5711 304.643 16.245 296.637C8.59571 287.599 6.35673 277.989 4.23782 255.463C1.58918 229.449 1.00295 194.198 0 158.78C1.50443 123.548 1.59625 88.0362 4.25901 61.4941C6.04596 40.5526 8.86411 26.4734 16.0896 17.5225C26.2251 9.92034 43.5154 6.14105 69.3096 4.27626C104.625 0.639929 141.395 -0.0749055 179.408 0.00590187C218.53 0.0618454 256.085 1.04397 289.592 3.94681C312.193 5.5381 330.896 8.96309 341.201 17.3484H341.236Z" fill="white"/>
<path d="M303.95 50.46C306.68 48.82 309.47 49.73 312.14 50.46C317.227 51.8923 321.716 54.9272 324.941 59.114C328.166 63.3007 329.954 68.416 330.04 73.7C330.1 76.43 329.98 79.16 329.98 81.83C329.27 81.9174 328.609 82.2374 328.1 82.74C320.45 88.2 312.69 93.66 305.1 99.19C302.01 101.44 298.61 103.19 296 106.05C294.999 106.182 294.064 106.626 293.33 107.32C268.083 124.74 242.857 142.137 217.65 159.51C205.15 168.13 192.65 176.87 180.15 185.51H179.15C178.6 185.09 178.15 184.51 177.57 184.17L85.27 119.9C78.96 115.53 72.65 111.1 66.34 106.73C65.61 106.24 64.94 105.21 64.03 105.73C63.12 106.25 63.73 107.37 63.61 108.28C63.5797 108.583 63.5797 108.887 63.61 109.19V261.19C63.61 262.28 63.67 263.44 63.73 264.53C63.73 265.14 63.67 265.68 63.67 266.29C52.14 267.69 41.67 266.11 34.42 255.67C31.7618 251.929 30.3198 247.459 30.29 242.87C30.29 186.25 30.31 129.65 30.35 73.07C30.35 61.54 39.7 51.34 51.17 49.71C52.99 49.47 54.81 49.22 56.39 50.44C56.7246 50.8033 57.0892 51.1378 57.48 51.44C97.5934 81.1733 137.707 110.93 177.82 140.71C179.4 141.86 180.43 141.8 182.01 140.65C214.05 116.983 246.113 93.3566 278.2 69.77C286.673 63.3766 295.257 56.94 303.95 50.46V50.46Z" fill="#030E20"/>
<path d="M303.95 50.46C295.27 56.89 286.65 63.39 277.95 69.82C245.91 93.4867 213.847 117.113 181.76 140.7C180.18 141.85 179.21 141.91 177.57 140.76C137.517 110.96 97.4233 81.2033 57.29 51.49C56.8992 51.1879 56.5345 50.8534 56.2 50.49C56.93 49.28 58.2 49.7 59.2 49.7H300.92C301.95 49.67 303.17 49.25 303.95 50.46Z" fill="#F0EDE2"/>
<path d="M63.5799 264.5C63.5199 263.41 63.4599 262.25 63.4599 261.16V109.18C63.4296 108.877 63.4296 108.573 63.4599 108.27C63.5799 107.42 63.0399 106.27 63.8799 105.72C64.7199 105.17 65.5199 106.21 66.1899 106.72C72.4999 111.09 78.8099 115.52 85.1199 119.89L177.42 184.16C177.97 184.58 178.51 185.07 179 185.5C178.76 185.74 178.45 185.92 178.21 186.17L177.6 186.78C177.361 186.752 177.118 186.795 176.903 186.903C176.688 187.012 176.51 187.181 176.39 187.39L175.78 188C175.72 188.12 175.6 188.18 175.54 188.3C175.66 188.24 175.72 188.12 175.84 188.06L176.45 187.45C176.689 187.478 176.931 187.435 177.147 187.327C177.362 187.218 177.54 187.049 177.66 186.84L178.27 186.23C178.88 186.23 179.48 186.17 180.09 186.17C188.53 192.06 197.02 197.88 205.46 203.77C230.58 221.19 255.71 238.54 280.77 256.08C285.26 259.24 290.18 261.97 294.18 265.79C293.09 266.79 291.75 266.15 290.54 266.34C290.6 264.94 289.39 264.58 288.48 263.97C283.87 260.75 279.13 257.66 274.64 254.32C267.11 248.8 259.47 243.52 251.82 238.18C245.45 233.75 239.14 229.18 232.58 224.95C226.88 221.31 221.58 216.95 215.89 213.24C209.46 209.11 203.39 204.5 197.02 200.31C191.74 196.85 186.58 193.15 181.42 189.51C180.42 188.78 179.48 188.51 178.42 189.21C176.24 190.79 173.42 191.82 171.62 193.52C166.4 198.31 160.03 201.41 154.57 205.78C147.57 211.3 140.07 216.22 132.57 221.13C120.19 229.32 108.17 238.18 95.8599 246.44C88.5199 251.36 81.2299 256.33 74.1999 261.73C72.2599 263.19 69.6499 263.85 68.4299 266.28C67.2199 266.16 65.8799 266.64 64.7299 265.86C86.4566 250.687 108.163 235.537 129.85 220.41C132.7 218.41 135.92 216.83 138.29 214.16C138.71 214.04 139.29 213.98 139.2 213.37C139.187 213.328 139.164 213.289 139.132 213.257C139.101 213.226 139.062 213.203 139.02 213.19C138.41 213.13 138.29 213.61 138.17 214.04C135.99 214.16 134.65 215.86 133.01 216.95C109.883 232.85 86.7399 248.7 63.5799 264.5V264.5ZM167.96 193.5L168.57 192.89C168.809 192.918 169.051 192.875 169.267 192.767C169.482 192.658 169.66 192.489 169.78 192.28L170.39 191.67C170.629 191.698 170.871 191.655 171.087 191.547C171.302 191.438 171.48 191.269 171.6 191.06C171.66 190.94 171.78 190.88 171.84 190.76C171.72 190.82 171.66 190.94 171.54 191C171.301 190.972 171.058 191.015 170.843 191.123C170.628 191.232 170.45 191.401 170.33 191.61L169.72 192.22C169.481 192.192 169.238 192.235 169.023 192.343C168.808 192.452 168.63 192.621 168.51 192.83C168.33 193.07 168.15 193.25 167.96 193.5C167.837 193.546 167.731 193.63 167.66 193.74C167.783 193.694 167.888 193.61 167.96 193.5ZM160.07 198.9C159.831 198.872 159.588 198.915 159.373 199.023C159.158 199.132 158.98 199.301 158.86 199.51C158.5 199.57 158.01 199.57 157.95 200.12C157.976 200.205 158.023 200.281 158.086 200.344C158.148 200.407 158.225 200.453 158.31 200.48C158.8 200.42 158.86 199.99 158.92 199.63C159.41 199.57 159.83 199.51 160.07 198.9C160.319 198.751 160.545 198.566 160.74 198.35C160.979 198.378 161.221 198.335 161.437 198.227C161.652 198.118 161.83 197.949 161.95 197.74L162.56 197.13C162.799 197.158 163.041 197.115 163.257 197.007C163.472 196.898 163.65 196.729 163.77 196.52C163.83 196.4 163.95 196.34 164.01 196.22C163.89 196.28 163.83 196.4 163.71 196.46C163.471 196.432 163.228 196.475 163.013 196.583C162.798 196.692 162.62 196.861 162.5 197.07L161.89 197.68C161.651 197.652 161.408 197.695 161.193 197.803C160.978 197.912 160.8 198.081 160.68 198.29L160.07 198.9ZM152.17 204.42C151.931 204.392 151.688 204.435 151.473 204.543C151.258 204.652 151.08 204.821 150.96 205.03C150.47 205.09 149.96 205.15 150.05 205.82C150.063 205.863 150.086 205.901 150.117 205.933C150.149 205.964 150.187 205.987 150.23 206C150.9 206.06 150.96 205.58 151.02 205.09C151.254 205.092 151.485 205.031 151.687 204.913C151.89 204.795 152.056 204.625 152.17 204.42C152.408 204.255 152.632 204.071 152.84 203.87C153.079 203.898 153.321 203.855 153.537 203.747C153.752 203.638 153.93 203.469 154.05 203.26L154.66 202.65C154.899 202.678 155.141 202.635 155.357 202.527C155.572 202.418 155.75 202.249 155.87 202.04C155.93 201.92 156.05 201.86 156.11 201.74C155.99 201.8 155.93 201.92 155.81 201.98C155.571 201.952 155.328 201.995 155.113 202.103C154.898 202.212 154.72 202.381 154.6 202.59L153.99 203.2C153.751 203.172 153.508 203.215 153.293 203.323C153.078 203.432 152.9 203.601 152.78 203.81C152.547 203.982 152.341 204.187 152.17 204.42V204.42ZM146.1 208.73C146.59 208.67 147.1 208.61 147.01 207.94C146.997 207.898 146.974 207.859 146.942 207.827C146.911 207.796 146.872 207.773 146.83 207.76C146.16 207.7 146.1 208.18 146.04 208.67C145.802 208.649 145.562 208.696 145.348 208.803C145.135 208.911 144.955 209.076 144.83 209.28C144.444 209.294 144.07 209.415 143.749 209.628C143.428 209.842 143.172 210.14 143.01 210.49C142.59 210.61 142.01 210.61 142.1 211.28C142.113 211.323 142.136 211.361 142.167 211.393C142.199 211.424 142.237 211.447 142.28 211.46C142.89 211.52 143.01 211.04 143.07 210.55C143.92 210.55 144.77 210.49 144.89 209.34C145.128 209.35 145.365 209.299 145.579 209.192C145.792 209.086 145.975 208.927 146.11 208.73H146.1ZM166 194.35C165.932 194.519 165.852 194.683 165.76 194.84C165.94 194.9 166.12 195.08 166.25 195.02C166.38 194.96 166.43 194.72 166.49 194.53C166.326 194.48 166.166 194.42 166.01 194.35H166ZM148.95 206.91C148.89 206.73 148.83 206.49 148.71 206.49C148.62 206.472 148.526 206.479 148.44 206.511C148.353 206.543 148.277 206.598 148.22 206.67C148.173 206.715 148.141 206.774 148.128 206.838C148.115 206.902 148.122 206.969 148.149 207.028C148.175 207.088 148.219 207.139 148.274 207.173C148.33 207.207 148.395 207.224 148.46 207.22C148.66 207.18 148.78 207.03 148.96 206.91H148.95ZM174.17 189.61C174.212 189.431 174.294 189.263 174.41 189.12C174.23 189.06 174.05 188.88 173.92 188.94C173.79 189 173.74 189.24 173.68 189.43C173.839 189.5 174.003 189.56 174.17 189.61V189.61ZM141.04 212.31C140.949 212.164 140.849 212.024 140.74 211.89C140.62 211.89 140.32 212.01 140.32 212.13C140.2 212.43 140.38 212.68 140.68 212.62C140.83 212.61 140.95 212.43 141.07 212.31H141.04Z" fill="#E6E3D6"/>
<path d="M294.17 265.78C290.17 261.9 285.31 259.23 280.76 256.07C255.7 238.59 230.6 221.15 205.46 203.75C197.02 197.86 188.53 192.04 180.09 186.15C180.09 185.97 180.03 185.73 180.03 185.54L217.53 159.54C242.777 142.12 268.003 124.723 293.21 107.35C293.944 106.656 294.879 106.212 295.88 106.08V266.32C295.4 266.18 294.79 265.96 294.17 265.78V265.78Z" fill="#CCCBC6"/>
<path d="M68.4299 266.32C69.5799 263.89 72.2499 263.23 74.1999 261.77C81.1999 256.43 88.5199 251.39 95.8599 246.48C108.17 238.18 120.17 229.36 132.58 221.18C140.04 216.26 147.58 211.35 154.58 205.83C160.1 201.46 166.41 198.37 171.63 193.57C173.51 191.87 176.24 190.84 178.43 189.26C179.43 188.47 180.37 188.77 181.43 189.56C186.59 193.2 191.75 196.9 197.03 200.36C203.4 204.55 209.47 209.22 215.9 213.29C221.6 216.93 226.9 221.29 232.59 225C239.14 229.19 245.46 233.8 251.83 238.23C259.48 243.57 267.18 248.85 274.65 254.37C279.2 257.71 283.87 260.8 288.49 264.02C289.34 264.63 290.61 265.02 290.55 266.39C216.51 266.323 142.47 266.3 68.4299 266.32Z" fill="#E6E3D6"/>
<path d="M296 266.32V106.05C298.61 103.2 302 101.44 305.1 99.19C312.75 93.61 320.45 88.19 328.1 82.74C328.601 82.2262 329.266 81.9042 329.98 81.83C330.04 82.83 330.1 83.83 330.1 84.83C330.1 136.477 330.12 188.143 330.16 239.83C330.249 243.377 329.914 246.922 329.16 250.39C328.562 253.438 327.162 256.271 325.103 258.596C323.045 260.922 320.403 262.656 317.45 263.62C310.549 265.93 303.258 266.848 296 266.32V266.32Z" fill="#030E20"/>
<path d="M138.28 214.18C135.91 216.85 132.7 218.43 129.84 220.43C108.173 235.603 86.4667 250.753 64.72 265.88L63.51 266.24C63.51 265.63 63.57 265.09 63.57 264.48C86.75 248.64 109.913 232.8 133.06 216.96C134.7 215.87 135.97 214.11 138.22 214.05L138.28 214.18Z" fill="#D4D3C8"/>
<path d="M180.09 185.55C180.08 185.755 180.1 185.961 180.15 186.16C179.54 186.16 178.94 186.22 178.33 186.22C178.57 185.98 178.88 185.8 179.12 185.55H180.09Z" fill="#D9D8D0"/>
<path d="M143.01 210.43C143.172 210.08 143.428 209.782 143.749 209.568C144.07 209.355 144.445 209.234 144.83 209.22L144.89 209.28C144.77 210.43 143.89 210.49 143.07 210.49L143.01 210.43Z" fill="#D4D3C8"/>
<path d="M166.01 194.35C166.177 194.4 166.341 194.46 166.5 194.53C166.44 194.71 166.38 194.95 166.26 195.02C166.14 195.09 165.96 194.9 165.77 194.84C165.837 194.671 165.918 194.507 166.01 194.35Z" fill="#DBD9CE"/>
<path d="M146.05 208.61C146.11 208.12 146.23 207.7 146.84 207.7C146.883 207.713 146.921 207.736 146.953 207.767C146.984 207.799 147.007 207.837 147.02 207.88C147.02 208.55 146.53 208.55 146.11 208.67C146.11 208.73 146.05 208.61 146.05 208.61ZM148.96 206.91C148.84 207.03 148.66 207.21 148.54 207.15C148.475 207.154 148.41 207.137 148.354 207.103C148.299 207.069 148.255 207.018 148.229 206.958C148.203 206.899 148.195 206.832 148.208 206.768C148.221 206.704 148.253 206.645 148.3 206.6C148.36 206.48 148.66 206.42 148.79 206.42C148.92 206.42 148.84 206.79 148.96 206.91Z" fill="#D4D3C8"/>
<path d="M174.17 189.61C173.991 189.568 173.823 189.486 173.68 189.37C173.74 189.19 173.8 188.95 173.92 188.88C174.04 188.81 174.22 189 174.41 189.06C174.305 189.231 174.224 189.416 174.17 189.61V189.61Z" fill="#D9D8D0"/>
<path d="M151.03 205.09C150.97 205.58 150.85 206 150.24 206C150.198 205.987 150.159 205.964 150.128 205.933C150.096 205.901 150.073 205.863 150.06 205.82C150.06 205.15 150.55 205.15 150.97 205.03L151.03 205.09Z" fill="#D4D3C8"/>
<path d="M158.91 199.63C158.85 200.05 158.79 200.42 158.3 200.48C158.215 200.453 158.138 200.407 158.076 200.344C158.013 200.281 157.966 200.205 157.94 200.12C158 199.63 158.43 199.57 158.85 199.51C158.856 199.555 158.877 199.598 158.91 199.63V199.63Z" fill="#DBDAD2"/>
<path d="M143.17 210.55C143.05 211.04 142.99 211.46 142.38 211.46C142.337 211.447 142.299 211.424 142.267 211.393C142.236 211.361 142.213 211.322 142.2 211.28C142.14 210.61 142.69 210.61 143.11 210.49L143.17 210.55ZM141.07 212.31C140.95 212.43 140.83 212.61 140.71 212.61C140.35 212.67 140.22 212.43 140.35 212.12C140.4 212.053 140.463 211.998 140.535 211.957C140.607 211.915 140.687 211.889 140.77 211.88C140.83 211.95 140.95 212.18 141.07 212.31V212.31ZM138.17 214.07C138.29 213.58 138.35 213.16 139.02 213.22C139.062 213.233 139.101 213.256 139.132 213.287C139.164 213.319 139.187 213.358 139.2 213.4C139.26 214.07 138.71 214.07 138.29 214.19L138.17 214.07Z" fill="#D4D3C8"/>
<path d="M169.78 192.29C169.66 192.499 169.482 192.668 169.267 192.777C169.051 192.885 168.809 192.928 168.57 192.9L168.51 192.84C168.657 192.647 168.85 192.495 169.073 192.398C169.295 192.302 169.539 192.265 169.78 192.29V192.29Z" fill="#DBD9CE"/>
<path d="M144.9 209.18C145.02 208.971 145.198 208.802 145.413 208.693C145.628 208.585 145.871 208.542 146.11 208.57L146.17 208.63C146.05 208.839 145.872 209.008 145.656 209.117C145.441 209.225 145.199 209.268 144.96 209.24C144.96 209.34 144.9 209.18 144.9 209.18Z" fill="#D4D3C8"/>
<path d="M162.49 197.18C162.61 196.971 162.788 196.802 163.003 196.693C163.218 196.585 163.461 196.542 163.7 196.57L163.76 196.63C163.613 196.823 163.42 196.975 163.197 197.072C162.975 197.168 162.731 197.205 162.49 197.18ZM161.89 197.75C161.77 197.959 161.592 198.128 161.377 198.237C161.161 198.345 160.919 198.388 160.68 198.36C160.795 198.146 160.972 197.973 161.189 197.864C161.405 197.755 161.65 197.715 161.89 197.75V197.75Z" fill="#DBDAD2"/>
<path d="M154.61 202.6C154.73 202.391 154.908 202.222 155.123 202.113C155.338 202.005 155.581 201.962 155.82 201.99L155.88 202.05C155.733 202.243 155.539 202.395 155.317 202.492C155.095 202.588 154.851 202.625 154.61 202.6V202.6ZM154 203.18C153.88 203.389 153.702 203.558 153.486 203.667C153.271 203.775 153.029 203.818 152.79 203.79C153.03 203.24 153.46 203.18 154 203.18ZM152.17 204.42C152.05 204.629 151.872 204.798 151.656 204.907C151.441 205.015 151.199 205.058 150.96 205.03L150.9 204.97C151.046 204.777 151.24 204.625 151.463 204.528C151.685 204.432 151.929 204.395 152.17 204.42V204.42Z" fill="#D4D3C8"/>
<path d="M177.67 186.82C177.55 187.029 177.372 187.198 177.156 187.307C176.941 187.415 176.699 187.458 176.46 187.43L176.4 187.37C176.546 187.177 176.74 187.025 176.963 186.928C177.185 186.832 177.429 186.795 177.67 186.82V186.82Z" fill="#D9D8D0"/>
<path d="M170.38 191.68C170.5 191.471 170.678 191.302 170.893 191.193C171.108 191.085 171.351 191.042 171.59 191.07C171.475 191.284 171.298 191.457 171.081 191.566C170.865 191.675 170.62 191.715 170.38 191.68V191.68Z" fill="#DBD9CE"/>
<path d="M160.07 198.96C159.95 199.169 159.772 199.338 159.557 199.447C159.342 199.555 159.099 199.598 158.86 199.57L158.8 199.51C158.947 199.317 159.14 199.165 159.363 199.069C159.585 198.972 159.829 198.935 160.07 198.96V198.96Z" fill="#DBDAD2"/>
<path d="M154 203.18L154.61 202.57L154.67 202.63C154.43 202.81 154.25 202.99 154 203.18V203.18Z" fill="#D4D3C8"/>
<path d="M160.67 198.35L160.06 198.96L160 198.9C160.24 198.72 160.42 198.54 160.67 198.35V198.35Z" fill="#DBDAD2"/>
<path d="M167.96 193.5L168.57 192.89L168.63 192.95C168.39 193.13 168.21 193.31 167.96 193.5V193.5Z" fill="#DBD9CE"/>
<path d="M163.71 196.53C163.83 196.47 163.89 196.35 164.01 196.29C163.89 196.35 163.83 196.47 163.71 196.53Z" fill="#DBDAD2"/>
<path d="M171.6 191.07C171.72 191.01 171.78 190.89 171.9 190.83C171.78 190.89 171.72 191.01 171.6 191.07Z" fill="#DBD9CE"/>
<path d="M175.85 188.04C175.73 188.1 175.67 188.22 175.55 188.28C175.67 188.22 175.73 188.1 175.85 188.04ZM175.85 188.04L176.46 187.43L176.52 187.49C176.28 187.67 176.1 187.85 175.85 188.04V188.04Z" fill="#D9D8D0"/>
<path d="M169.78 192.29L170.39 191.68L170.45 191.74C170.21 191.92 170.03 192.1 169.78 192.29V192.29Z" fill="#DBD9CE"/>
<path d="M178.27 186.18L177.66 186.79L177.6 186.73C177.84 186.55 178.02 186.37 178.27 186.18V186.18Z" fill="#D9D8D0"/>
<path d="M167.96 193.5C167.84 193.56 167.78 193.68 167.66 193.74C167.78 193.68 167.84 193.56 167.96 193.5Z" fill="#DBD9CE"/>
<path d="M155.82 201.99C155.94 201.93 156 201.81 156.12 201.75C156 201.81 155.94 201.93 155.82 201.99Z" fill="#D4D3C8"/>
<path d="M162.49 197.18L161.88 197.79L161.82 197.73C162.06 197.55 162.24 197.37 162.49 197.18V197.18Z" fill="#DBDAD2"/>
<path d="M152.79 203.82L152.18 204.43L152.12 204.37C152.36 204.19 152.54 204.01 152.79 203.82V203.82Z" fill="#D4D3C8"/>
</svg>
