<svg width="33" height="34" viewBox="0 0 33 34" fill="none" xmlns="http://www.w3.org/2000/svg">
<path d="M16.5 7.60294C11.55 7.60294 7.5625 11.6118 7.5625 16.5882C7.5625 21.5647 11.55 25.5735 16.5 25.5735C21.45 25.5735 25.4375 21.5647 25.4375 16.5882C25.4375 11.6118 21.45 7.60294 16.5 7.60294ZM16.5 24.1912C12.3063 24.1912 8.9375 20.8044 8.9375 16.5882C8.9375 12.3721 12.3063 8.98529 16.5 8.98529C20.6938 8.98529 24.0625 12.3721 24.0625 16.5882C24.0625 20.8044 20.6938 24.1912 16.5 24.1912Z" fill="white"/>
<path d="M30.25 13.8235H28.6C28.2562 12.372 27.7062 11.0588 27.0187 9.95293L28.1188 8.70881C28.9438 7.8794 28.9438 6.63528 28.1188 5.80587L27.1562 4.83822C26.3312 4.00881 25.025 4.00881 24.2687 4.83822L23.0312 6.08234C21.7938 5.25293 20.5562 4.7691 19.1812 4.49263V2.76469C19.1812 1.58969 18.2875 0.691162 17.1187 0.691162H15.7437C14.575 0.691162 13.6812 1.58969 13.6812 2.76469V4.49263C12.375 4.7691 11.0688 5.32204 9.83125 6.08234L8.6625 4.90734C7.8375 4.07793 6.6 4.07793 5.775 4.90734L4.8125 5.87499C4.4 6.28969 4.19375 6.77352 4.19375 7.32646C4.19375 7.8794 4.4 8.36322 4.8125 8.77793L6.05 9.95293C5.29375 11.197 4.74375 12.4412 4.46875 13.8235H2.75C1.58125 13.8235 0.6875 14.722 0.6875 15.897V17.2794C0.6875 18.4544 1.58125 19.3529 2.75 19.3529H4.46875C4.74375 20.6662 5.29375 21.9794 6.11875 23.2235L4.95 24.4676C4.125 25.297 4.125 26.5412 4.95 27.3706L5.84375 28.3382C6.66875 29.1676 7.90625 29.1676 8.73125 28.3382L9.9 27.0941C11.1375 27.8544 12.375 28.4073 13.75 28.6838V30.4118C13.75 31.5868 14.6438 32.4853 15.8125 32.4853H17.1875C18.3563 32.4853 19.25 31.5868 19.25 30.4118V28.7529C20.6938 28.4073 21.9312 27.8544 23.1 27.1632L24.2687 28.2691C25.0938 29.0985 26.3312 29.0985 27.1562 28.2691L28.1188 27.3015C28.9438 26.472 28.9438 25.2279 28.1188 24.3985L26.95 23.2235C27.775 21.9794 28.2563 20.7353 28.5312 19.3529H30.25C31.4188 19.3529 32.3125 18.4544 32.3125 17.2794V15.897C32.3125 14.722 31.4188 13.8235 30.25 13.8235ZM30.9375 17.2794C30.9375 17.6941 30.6625 17.9706 30.25 17.9706H27.3625L27.2938 18.5235C27.0188 20.0441 26.4687 21.4956 25.5062 22.8779L25.1625 23.3617L27.1562 25.3662C27.2938 25.5044 27.3625 25.6426 27.3625 25.85C27.3625 26.0573 27.2938 26.1956 27.1562 26.3338L26.1937 27.3015C25.9187 27.5779 25.5063 27.5779 25.2313 27.3015L23.2375 25.3662L22.7562 25.7118C21.5187 26.6103 20.075 27.2323 18.425 27.5088L17.875 27.647V30.4118C17.875 30.8265 17.6 31.1029 17.1875 31.1029H15.8125C15.4 31.1029 15.125 30.8265 15.125 30.4118V27.5088L14.575 27.4397C13.0625 27.1632 11.6187 26.6103 10.2437 25.6426L9.7625 25.297L7.76875 27.3706C7.49375 27.647 7.08125 27.647 6.80625 27.3706L5.84375 26.4029C5.56875 26.1265 5.56875 25.7118 5.84375 25.4353L7.8375 23.3617L7.49375 22.8779C6.53125 21.4956 5.9125 20.0441 5.70625 18.5235L5.6375 17.9706H2.75C2.3375 17.9706 2.0625 17.6941 2.0625 17.2794V15.897C2.0625 15.4823 2.3375 15.2059 2.75 15.2059H5.6375L5.70625 14.6529C5.98125 13.1323 6.53125 11.6809 7.49375 10.2985L7.8375 9.81469L5.775 7.81028C5.6375 7.67204 5.56875 7.53381 5.56875 7.32646C5.56875 7.1191 5.6375 6.98087 5.775 6.84263L6.7375 5.87499C7.0125 5.59852 7.425 5.59852 7.7 5.87499L9.69375 7.8794L10.175 7.53381C11.4812 6.56616 12.9938 5.9441 14.5063 5.73675L15.0562 5.66763V2.76469C15.0562 2.34999 15.3313 2.07352 15.7437 2.07352H17.1187C17.5312 2.07352 17.8062 2.34999 17.8062 2.76469V5.66763L18.3563 5.73675C19.8687 6.01322 21.3125 6.56616 22.6875 7.53381L23.1688 7.8794L25.2313 5.80587C25.5063 5.5294 25.9187 5.5294 26.1937 5.80587L27.1562 6.77352C27.4312 7.04999 27.4312 7.46469 27.1562 7.74116L25.3 9.81469L25.6437 10.2985C26.4688 11.5426 27.0875 12.9941 27.4313 14.6529L27.5 15.2059H30.25C30.6625 15.2059 30.9375 15.4823 30.9375 15.897V17.2794Z" fill="white"/>
</svg>
