<svg width="185" height="174" viewBox="0 0 185 174" fill="none" xmlns="http://www.w3.org/2000/svg">
<g clip-path="url(#clip0_15_6)">
<path d="M40.4687 48.2034C40.7443 48.1946 41.013 48.1198 41.2492 47.9859C41.5708 47.7909 41.797 47.4839 41.8783 47.1323C41.9595 46.7806 41.8893 46.413 41.6828 46.11C39.7265 43.245 38.8705 39.8369 39.2568 36.4514C39.6432 33.0658 41.2487 29.9063 43.8069 27.497C46.3651 25.0877 49.7223 23.5735 53.3213 23.2057C56.9204 22.8378 60.545 23.6385 63.5937 25.4747C63.9159 25.6689 64.3067 25.735 64.6806 25.6585C65.0545 25.5821 65.3809 25.3693 65.5883 25.0669C65.7962 24.7596 65.8673 24.3878 65.7861 24.0317C65.705 23.6756 65.4782 23.3638 65.1547 23.1637C61.5429 20.9359 57.2253 19.9465 52.9287 20.3621C48.6322 20.7777 44.6191 22.5728 41.5649 25.4454C38.5108 28.3179 36.6021 32.0924 36.1603 36.1335C35.7185 40.1746 36.7704 44.2355 39.1391 47.6325C39.2943 47.8225 39.4967 47.9739 39.7285 48.0734C39.9602 48.1729 40.2144 48.2176 40.4687 48.2034Z" fill="white"/>
<path d="M54.9218 53.0156C53.2407 53.0216 51.5702 52.7644 49.9789 52.2544C49.6107 52.1491 49.2137 52.1807 48.8695 52.3425C48.5253 52.5044 48.2602 52.7842 48.1289 53.1244C48.0103 53.4669 48.0412 53.8396 48.2146 54.1608C48.388 54.4819 48.6899 54.7252 49.0539 54.8372C50.9179 55.4237 52.8696 55.7265 54.8351 55.7344C57.3088 55.7415 59.7596 55.2899 62.0475 54.4053C64.3354 53.5208 66.4154 52.2206 68.1686 50.5793C69.9218 48.938 71.3137 46.9876 72.2647 44.8399C73.2157 42.6921 73.7071 40.3891 73.7109 38.0625C73.7026 36.2138 73.3805 34.3782 72.757 32.625C72.6379 32.2827 72.3793 31.9987 72.0378 31.8356C71.6964 31.6725 71.3001 31.6435 70.9359 31.755C70.5742 31.8786 70.2767 32.1279 70.1046 32.4516C69.9325 32.7753 69.899 33.1487 70.0109 33.495C70.5437 34.9658 70.8171 36.5087 70.8203 38.0625C70.8126 42.0261 69.1352 45.8253 66.1553 48.628C63.1754 51.4307 59.136 53.0084 54.9218 53.0156Z" fill="white"/>
<path d="M54.9219 44.8594C56.3512 44.8594 57.7483 44.4607 58.9367 43.7139C60.1251 42.967 61.0514 41.9055 61.5983 40.6636C62.1453 39.4216 62.2884 38.055 62.0096 36.7365C61.7307 35.418 61.0425 34.2069 60.0318 33.2564C59.0212 32.3058 57.7335 31.6585 56.3317 31.3962C54.9299 31.134 53.4769 31.2686 52.1564 31.783C50.8359 32.2974 49.7073 33.1686 48.9132 34.2864C48.1191 35.4041 47.6953 36.7182 47.6953 38.0625C47.6953 39.8651 48.4567 41.594 49.8119 42.8686C51.1672 44.1433 53.0053 44.8594 54.9219 44.8594ZM54.9219 33.9844C55.7794 33.9844 56.6177 34.2236 57.3308 34.6717C58.0438 35.1198 58.5996 35.7567 58.9278 36.5019C59.2559 37.2471 59.3418 38.067 59.1745 38.8581C59.0072 39.6492 58.5942 40.3758 57.9878 40.9462C57.3815 41.5165 56.6089 41.9049 55.7678 42.0623C54.9267 42.2196 54.0549 42.1389 53.2626 41.8302C52.4703 41.5215 51.7931 40.9988 51.3167 40.3282C50.8402 39.6575 50.5859 38.8691 50.5859 38.0625C50.5859 36.9809 51.0428 35.9436 51.8559 35.1788C52.6691 34.414 53.7719 33.9844 54.9219 33.9844Z" fill="white"/>
<path d="M162.598 72.2372C162.435 72.1452 162.255 72.0848 162.067 72.0597C161.879 72.0345 161.688 72.0451 161.505 72.0907C161.321 72.1364 161.15 72.2162 161 72.3254C160.85 72.4346 160.725 72.571 160.632 72.7266L150.312 89.8547L145.832 83.52C145.617 83.2171 145.284 83.0069 144.904 82.9355C144.525 82.8642 144.131 82.9375 143.809 83.1394C143.487 83.3413 143.263 83.6552 143.187 84.0121C143.111 84.369 143.189 84.7396 143.404 85.0425L149.185 93.1987C149.321 93.3834 149.502 93.5344 149.714 93.6386C149.925 93.7427 150.16 93.7971 150.399 93.7969C150.642 93.7888 150.879 93.722 151.086 93.6029C151.294 93.4839 151.465 93.3166 151.584 93.1172L163.147 74.0859C163.243 73.9315 163.306 73.7603 163.331 73.5826C163.355 73.4049 163.342 73.2243 163.29 73.0517C163.239 72.8791 163.151 72.718 163.032 72.578C162.913 72.4381 162.765 72.3221 162.598 72.2372Z" fill="white"/>
<path d="M176.328 103.312H172.917C173.254 102.441 173.43 101.521 173.438 100.594V46.2188C173.438 44.0556 172.524 41.981 170.898 40.4514C169.271 38.9218 167.066 38.0625 164.766 38.0625H141.641C139.341 38.0625 137.135 38.9218 135.509 40.4514C133.882 41.981 132.969 44.0556 132.969 46.2188V48.9375C132.202 48.9375 131.467 49.2239 130.925 49.7338C130.383 50.2437 130.078 50.9352 130.078 51.6562V57.0938C130.078 57.8148 130.383 58.5063 130.925 59.0162C131.467 59.5261 132.202 59.8125 132.969 59.8125V100.594C132.977 101.521 133.153 102.441 133.489 103.312H91.0547V87H92.5C93.2666 87 94.0019 86.7136 94.544 86.2037C95.0861 85.6938 95.3906 85.0023 95.3906 84.2812H101.172C103.472 84.2812 105.678 83.4219 107.304 81.8923C108.93 80.3627 109.844 78.2882 109.844 76.125V8.15625C109.844 5.99308 108.93 3.9185 107.304 2.38891C105.678 0.859317 103.472 0 101.172 0L8.67188 0C6.37195 0 4.16623 0.859317 2.53993 2.38891C0.913641 3.9185 0 5.99308 0 8.15625L0 76.125C0 78.2882 0.913641 80.3627 2.53993 81.8923C4.16623 83.4219 6.37195 84.2812 8.67188 84.2812H40.4688C39.7081 90.7812 38.1164 97.1712 35.7281 103.312H8.67188C6.6382 103.327 4.67476 104.014 3.12479 105.252C1.57481 106.491 0.536912 108.202 0.19252 110.087C-0.151873 111.973 0.219153 113.912 1.24074 115.566C2.26232 117.22 3.86948 118.483 5.78125 119.136V165.844C5.78125 168.007 6.69489 170.081 8.32118 171.611C9.94748 173.141 12.1532 174 14.4531 174C16.753 174 18.9588 173.141 20.5851 171.611C22.2114 170.081 23.125 168.007 23.125 165.844V141.375H72.2656C74.5656 141.375 76.7713 140.516 78.3976 138.986C80.0239 137.456 80.9375 135.382 80.9375 133.219V119.625H88.1641V141.375C88.1641 149.667 91.6664 157.62 97.9005 163.483C104.135 169.347 112.59 172.641 121.406 172.641C130.223 172.641 138.678 169.347 144.912 163.483C151.146 157.62 154.648 149.667 154.648 141.375V119.625H161.875V165.844C161.875 168.007 162.789 170.081 164.415 171.611C166.041 173.141 168.247 174 170.547 174C172.847 174 175.053 173.141 176.679 171.611C178.305 170.081 179.219 168.007 179.219 165.844V119.136C181.131 118.483 182.738 117.22 183.759 115.566C184.781 113.912 185.152 111.973 184.807 110.087C184.463 108.202 183.425 106.491 181.875 105.252C180.325 104.014 178.362 103.327 176.328 103.312ZM138.75 46.2188C138.75 45.4977 139.055 44.8062 139.597 44.2963C140.139 43.7864 140.874 43.5 141.641 43.5H164.766C165.532 43.5 166.268 43.7864 166.81 44.2963C167.352 44.8062 167.656 45.4977 167.656 46.2188V47.0344H166.211C165.374 47.0509 164.552 47.2454 163.806 47.6032C163.06 47.961 162.41 48.4729 161.904 49.1006C161.095 49.9162 160.661 50.2969 159.707 50.2969H146.699C145.745 50.2969 145.312 49.9162 144.502 49.1006C143.997 48.4729 143.347 47.961 142.601 47.6032C141.855 47.2454 141.032 47.0509 140.195 47.0344H138.75V46.2188ZM138.75 100.594V49.7531H140.195C141.149 49.7531 141.583 50.1338 142.392 50.9494C142.898 51.5771 143.548 52.089 144.294 52.4468C145.04 52.8046 145.862 52.9991 146.699 53.0156H159.707C160.544 52.9991 161.366 52.8046 162.112 52.4468C162.858 52.089 163.508 51.5771 164.014 50.9494C164.823 50.1338 165.257 49.7531 166.211 49.7531H167.656V100.594C167.656 101.315 167.352 102.006 166.81 102.516C166.268 103.026 165.532 103.312 164.766 103.312H141.641C140.874 103.312 140.139 103.026 139.597 102.516C139.055 102.006 138.75 101.315 138.75 100.594ZM141.641 108.75H147.422C147.422 109.471 147.726 110.163 148.269 110.672C148.811 111.182 149.546 111.469 150.312 111.469H151.758V114.188H91.0547V108.75H141.641ZM88.1641 103.312H74.2602C71.8718 97.1712 70.2801 90.7812 69.5195 84.2812H83.8281C83.8281 85.0023 84.1327 85.6938 84.6748 86.2037C85.2169 86.7136 85.9521 87 86.7188 87H88.1641V103.312ZM104.062 76.125C104.062 76.8461 103.758 77.5376 103.216 78.0474C102.674 78.5573 101.939 78.8438 101.172 78.8438H59.2C60.1009 78.2136 60.8318 77.3933 61.3339 76.4488C61.8359 75.5043 62.0952 74.4622 62.0906 73.4062C62.1012 71.9427 61.6152 70.514 60.7031 69.3281H104.062V76.125ZM54.9219 69.3281C55.7794 69.3281 56.6178 69.5673 57.3308 70.0154C58.0438 70.4635 58.5996 71.1004 58.9278 71.8456C59.2559 72.5908 59.3418 73.4108 59.1745 74.2019C59.0072 74.9929 58.5942 75.7196 57.9878 76.2899C57.3815 76.8603 56.6089 77.2487 55.7678 77.406C54.9267 77.5634 54.0549 77.4826 53.2626 77.1739C52.4703 76.8653 51.7931 76.3426 51.3167 75.6719C50.8402 75.0013 50.5859 74.2128 50.5859 73.4062C50.5859 72.3247 51.0428 71.2874 51.8559 70.5226C52.6691 69.7578 53.7719 69.3281 54.9219 69.3281ZM8.67188 5.4375H101.172C101.939 5.4375 102.674 5.72394 103.216 6.2338C103.758 6.74367 104.062 7.43519 104.062 8.15625V66.6094H5.78125V8.15625C5.78125 7.43519 6.0858 6.74367 6.62789 6.2338C7.16999 5.72394 7.90523 5.4375 8.67188 5.4375ZM5.78125 76.125V69.3281H49.1406C48.208 70.5074 47.7015 71.9366 47.6953 73.4062C47.6908 74.4622 47.95 75.5043 48.4521 76.4488C48.9542 77.3933 49.6851 78.2136 50.5859 78.8438H8.67188C7.90523 78.8438 7.16999 78.5573 6.62789 78.0474C6.0858 77.5376 5.78125 76.8461 5.78125 76.125ZM46.25 84.2812H63.5938C64.2403 90.7705 65.7255 97.1613 68.0164 103.312H41.7117C44.042 97.166 45.566 90.775 46.25 84.2812ZM17.3438 138.656V156.328H11.5625V119.625H17.3438V138.656ZM14.4531 168.562C13.6865 168.562 12.9512 168.276 12.4091 167.766C11.867 167.256 11.5625 166.565 11.5625 165.844V159.047H17.3438V165.844C17.3438 166.565 17.0392 167.256 16.4971 167.766C15.955 168.276 15.2198 168.562 14.4531 168.562ZM75.1562 133.219C75.1562 133.94 74.8517 134.631 74.3096 135.141C73.7675 135.651 73.0323 135.938 72.2656 135.938H23.125V119.625H75.1562V133.219ZM78.0469 114.188H8.67188C7.90523 114.188 7.16999 113.901 6.62789 113.391C6.0858 112.881 5.78125 112.19 5.78125 111.469C5.78125 110.748 6.0858 110.056 6.62789 109.546C7.16999 109.036 7.90523 108.75 8.67188 108.75H88.1641V114.188H78.0469ZM151.758 141.375C151.758 148.946 148.56 156.207 142.868 161.561C137.176 166.914 129.456 169.922 121.406 169.922C113.357 169.922 105.636 166.914 99.9445 161.561C94.2524 156.207 91.0547 148.946 91.0547 141.375V119.625H151.758V141.375ZM173.438 156.328H167.656V119.625H173.438V156.328ZM170.547 168.562C169.78 168.562 169.045 168.276 168.503 167.766C167.961 167.256 167.656 166.565 167.656 165.844V159.047H173.438V165.844C173.438 166.565 173.133 167.256 172.591 167.766C172.049 168.276 171.314 168.562 170.547 168.562ZM176.328 114.188H154.648V111.469H156.094C156.86 111.469 157.596 111.182 158.138 110.672C158.68 110.163 158.984 109.471 158.984 108.75H176.328C177.095 108.75 177.83 109.036 178.372 109.546C178.914 110.056 179.219 110.748 179.219 111.469C179.219 112.19 178.914 112.881 178.372 113.391C177.83 113.901 177.095 114.188 176.328 114.188Z" fill="white"/>
<path d="M49.1406 131.859C49.9982 131.859 50.8365 131.62 51.5495 131.172C52.2626 130.724 52.8183 130.087 53.1465 129.342C53.4747 128.597 53.5606 127.777 53.3932 126.986C53.2259 126.195 52.813 125.468 52.2066 124.898C51.6002 124.327 50.8276 123.939 49.9865 123.781C49.1454 123.624 48.2736 123.705 47.4813 124.014C46.689 124.322 46.0119 124.845 45.5354 125.516C45.059 126.186 44.8047 126.975 44.8047 127.781C44.8047 128.863 45.2615 129.9 46.0747 130.665C46.8878 131.43 47.9907 131.859 49.1406 131.859ZM49.1406 126.422C49.4265 126.422 49.7059 126.502 49.9436 126.651C50.1813 126.8 50.3665 127.013 50.4759 127.261C50.5853 127.509 50.6139 127.783 50.5582 128.046C50.5024 128.31 50.3647 128.552 50.1626 128.742C49.9605 128.933 49.703 129.062 49.4226 129.114C49.1422 129.167 48.8516 129.14 48.5875 129.037C48.3234 128.934 48.0977 128.76 47.9389 128.536C47.7801 128.313 47.6953 128.05 47.6953 127.781C47.6953 127.421 47.8476 127.075 48.1186 126.82C48.3897 126.565 48.7573 126.422 49.1406 126.422Z" fill="white"/>
</g>
<defs>
<clipPath id="clip0_15_6">
<rect width="185" height="174" fill="white"/>
</clipPath>
</defs>
</svg>
