<svg width="50" height="50" viewBox="0 0 50 50" fill="none" xmlns="http://www.w3.org/2000/svg">
<rect width="50" height="50" rx="10" fill="white"/>
<path d="M42.1875 42.1875C41.7563 42.1875 41.4062 41.8375 41.4062 41.4062V21.0938C41.4062 20.6625 41.7563 20.3125 42.1875 20.3125C42.6187 20.3125 42.9688 20.6625 42.9688 21.0938V41.4062C42.9688 41.8375 42.6187 42.1875 42.1875 42.1875Z" fill="#030E20"/>
<path d="M7.8125 42.1875C7.38125 42.1875 7.03125 41.8375 7.03125 41.4062V21.0938C7.03125 20.6625 7.38125 20.3125 7.8125 20.3125C8.24375 20.3125 8.59375 20.6625 8.59375 21.0938V41.4062C8.59375 41.8375 8.24375 42.1875 7.8125 42.1875Z" fill="#030E20"/>
<path d="M25 22.5502C24.8453 22.5502 24.6922 22.5049 24.5594 22.4142L5.55156 9.40799C5.19531 9.16424 5.10469 8.6783 5.34844 8.32205C5.59219 7.9658 6.07656 7.87361 6.43437 8.11893L25 20.8221L38.9969 11.2455C39.3547 11.0017 39.8406 11.0939 40.0828 11.4486C40.3266 11.8049 40.2359 12.2908 39.8797 12.5346L25.4422 22.4127C25.3078 22.5049 25.1547 22.5502 25 22.5502Z" fill="#030E20"/>
<path d="M44.5312 42.1875H5.46875C3.31562 42.1875 1.5625 40.4344 1.5625 38.2812V11.7188C1.5625 11.2875 1.9125 10.9375 2.34375 10.9375C2.775 10.9375 3.125 11.2875 3.125 11.7188V38.2812C3.125 39.5734 4.17656 40.625 5.46875 40.625H44.5312C45.8234 40.625 46.875 39.5734 46.875 38.2812V11.7188C46.875 10.4266 45.8234 9.375 44.5312 9.375C44.1 9.375 43.75 9.025 43.75 8.59375C43.75 8.1625 44.1 7.8125 44.5312 7.8125C46.6844 7.8125 48.4375 9.56562 48.4375 11.7188V38.2812C48.4375 40.4344 46.6844 42.1875 44.5312 42.1875Z" fill="#030E20"/>
<path d="M25 29.6875C24.8453 29.6875 24.6906 29.6422 24.5562 29.55L3.22812 14.8406C2.18437 14.1219 1.5625 12.9344 1.5625 11.6672C1.5625 9.54219 3.29219 7.8125 5.41719 7.8125H44.5812C46.7078 7.8125 48.4375 9.54219 48.4375 11.6672C48.4375 12.9344 47.8156 14.1203 46.7719 14.8406L25.4438 29.55C25.3094 29.6422 25.1547 29.6875 25 29.6875ZM5.41719 9.375C4.15313 9.375 3.125 10.4031 3.125 11.6672C3.125 12.4219 3.49531 13.1266 4.11563 13.5547L25 27.9578L45.8844 13.5547C46.5047 13.1266 46.875 12.4219 46.875 11.6672C46.875 10.4031 45.8469 9.375 44.5828 9.375H5.41719Z" fill="#030E20"/>
</svg>
