<svg width="100" height="99" viewBox="0 0 100 99" fill="none" xmlns="http://www.w3.org/2000/svg">
<path d="M97.9324 45.0865L54.4405 1.85654C53.2292 0.670016 51.5968 0.00488281 49.8962 0.00488281C48.1956 0.00488281 46.5632 0.670016 45.3519 1.85654L36.3465 10.849L47.8004 22.234C49.1507 21.7731 50.6042 21.6999 51.9944 22.0226C53.3846 22.3453 54.6551 23.051 55.6603 24.0587C56.6654 25.0664 57.3644 26.3353 57.6772 27.7198C57.9899 29.1043 57.9037 30.5485 57.4285 31.8865L68.4675 42.859C69.7604 42.3905 71.1566 42.278 72.5086 42.5335C73.8605 42.7889 75.1179 43.4027 76.1478 44.31C77.1776 45.2173 77.9416 46.3844 78.359 47.6878C78.7765 48.9912 78.8317 50.3826 78.519 51.7146C78.2063 53.0467 77.5373 54.2701 76.5826 55.2553C75.628 56.2405 74.4232 56.9509 73.0957 57.3115C71.7682 57.6721 70.3674 57.6694 69.0413 57.3037C67.7152 56.938 66.5133 56.2229 65.5625 55.234C64.5028 54.1719 63.7805 52.8237 63.4853 51.357C63.1902 49.8902 63.3352 48.3695 63.9025 46.984L53.6105 37.1253V64.0203C54.3431 64.4003 55.0145 64.8869 55.6025 65.464C56.7744 66.6193 57.5405 68.1191 57.7874 69.7412C58.0342 71.3633 57.7485 73.0213 56.9728 74.4694C56.197 75.9174 54.9724 77.0784 53.4805 77.7802C51.9886 78.482 50.309 78.6873 48.6905 78.3655C47.0721 78.0438 45.601 77.2122 44.4955 75.994C43.3899 74.7759 42.7088 73.236 42.553 71.6028C42.3972 69.9696 42.7751 68.3299 43.6306 66.9269C44.4861 65.524 45.7737 64.4324 47.3025 63.814V36.424C46.3643 36.0535 45.5105 35.4998 44.7913 34.7957C44.0722 34.0915 43.5023 33.2513 43.1154 32.3245C42.7285 31.3977 42.5325 30.4033 42.5389 29.3999C42.5452 28.3965 42.7539 27.4046 43.1525 26.4828L31.906 15.2628L2.06745 44.8803C0.873739 46.0843 0.204575 47.7068 0.204575 49.3972C0.204575 51.0875 0.873739 52.71 2.06745 53.914L45.5595 97.144C46.7707 98.3305 48.4031 98.9957 50.1037 98.9957C51.8043 98.9957 53.4367 98.3305 54.648 97.144L97.9324 54.1203C99.1262 52.9163 99.7953 51.2938 99.7953 49.6034C99.7953 47.913 99.1262 46.2905 97.9324 45.0865Z" fill="white"/>
</svg>
