<svg width="99" height="99" viewBox="0 0 99 99" fill="none" xmlns="http://www.w3.org/2000/svg">
<path d="M50.8509 57.4607H58.399L57.6894 65.4193L50.8509 67.2687H50.8428L44.0103 65.4193L43.56 60.3153H37.3989L38.2794 70.1634L50.8428 73.6492L50.8509 73.6451L63.4203 70.1634L65.1008 51.3315H50.8509H42.754L42.1931 45.0536H50.8509H65.6597L66.2084 38.9224H50.8509H35.4913L37.1477 57.4607H50.8509Z" fill="white"/>
<path d="M49.5 0C22.1619 0 0 22.1669 0 49.502C0 76.8412 22.1599 99 49.5 99C76.8421 99 99 76.8412 99 49.502C99 22.1669 76.8401 0 49.5 0ZM63.3198 15.2838H66.4375V21.5296H70.8197V24.6073H63.3218V15.2838H63.3198ZM51.273 15.2838H54.5194L56.5174 18.5585L58.5155 15.2838H61.766V24.6093H58.6603V19.9878L56.5174 23.3006H56.4672L54.3203 19.9878V24.6093H51.273V15.2838ZM41.3026 15.2838H49.9081V18.3776H47.1602V24.6093H44.0465V18.3776H41.3026V15.2838ZM30.8639 15.2838H33.9796V18.3655H36.83V15.2838H39.9478V24.6093H36.83V21.4874H33.9796V24.6093H30.8639V15.2838ZM70.8699 78.7027L50.8388 84.259L30.8297 78.6987L26.3712 28.7001H75.3284L70.8699 78.7027Z" fill="white"/>
</svg>
