<svg width="120" height="120" viewBox="0 0 120 120" fill="none" xmlns="http://www.w3.org/2000/svg">
<path d="M84.1438 80.677C68.5834 80.677 57.4688 63.0624 57.0646 62.2708L55.8521 60.2916L57.0646 58.3124C57.4688 57.3228 68.5834 39.7083 84.1438 39.7083C95.6625 39.7083 104.958 48.8124 104.958 60.0937C104.958 71.3749 95.6625 80.677 84.1438 80.677ZM65.35 60.0937C68.3813 64.052 75.6563 72.5624 83.9417 72.5624C91.0146 72.5624 96.673 67.0208 96.673 60.0937C96.673 53.1666 91.0146 47.6249 83.9417 47.6249C75.6563 47.6249 68.3813 56.1353 65.35 60.0937Z" fill="white"/>
<path d="M36.8563 80.677C25.3375 80.677 16.0417 71.3749 16.0417 60.0937C16.0417 48.8124 25.3375 39.7083 36.8563 39.7083C52.8209 39.7083 63.5313 57.3228 63.9354 58.1145L65.1479 60.0937L63.9354 62.0728C63.5313 62.8645 52.4167 80.677 36.8563 80.677ZM36.8563 47.6249C29.7834 47.6249 24.125 53.1666 24.125 60.0937C24.125 67.0208 29.7834 72.5624 36.8563 72.5624C45.3438 72.5624 52.6188 64.052 55.65 60.0937C52.8209 56.1353 45.5459 47.6249 36.8563 47.6249Z" fill="white"/>
<path d="M32.2083 57.5208H44.3333V61.4791H32.2083V57.5208ZM76.6666 57.5208H88.7916V61.4791H76.6666V57.5208Z" fill="white"/>
<path d="M80.7084 53.5625H84.75V65.4375H80.7084V53.5625Z" fill="white"/>
<circle cx="60" cy="60" r="56.5" fill="#C4C4C4" fill-opacity="0.12" stroke="white" stroke-width="7"/>
</svg>
