<svg width="97" height="95" viewBox="0 0 97 95" fill="none" xmlns="http://www.w3.org/2000/svg">
<path d="M59 43.2647C59 38.1479 63.3092 34 68.625 34H76.875C79.1531 34 81 35.7777 81 37.9706C81 40.1634 79.1531 41.9412 76.875 41.9412H68.625C67.8654 41.9412 67.25 42.5336 67.25 43.2647V51.2059C67.25 51.937 67.8654 52.5294 68.625 52.5294H71.375C76.6908 52.5294 81 56.6774 81 61.7941V69.7353C81 74.8521 76.6908 79 71.375 79H63.125C60.8469 79 59 77.2222 59 75.0294C59 72.8366 60.8469 71.0588 63.125 71.0588H71.375C72.1346 71.0588 72.75 70.4664 72.75 69.7353V61.7941C72.75 61.063 72.1346 60.4706 71.375 60.4706H68.625C63.3092 60.4706 59 56.3226 59 51.2059V43.2647Z" fill="white"/>
<path d="M53 37.9706C53 35.7777 51.1195 34 48.8 34C46.4805 34 44.6 35.7777 44.6 37.9706V69.7353C44.6 70.4664 43.9734 71.0588 43.2 71.0588H36.2C33.8804 71.0588 32 72.8366 32 75.0294C32 77.2222 33.8804 79 36.2 79H43.2C48.6124 79 53 74.8521 53 69.7353V37.9706Z" fill="white"/>
<path d="M0 17.1528V77.8472C0 87.3203 7.84121 95 17.5139 95H79.4861C89.1586 95 97 87.3203 97 77.8472V17.1528C97 7.67954 89.1586 0 79.4861 0H17.5139C7.84121 0 0 7.67954 0 17.1528ZM17.5139 7.91667H79.4861C84.6945 7.91667 88.9167 12.0518 88.9167 17.1528V77.8472C88.9167 82.9482 84.6945 87.0833 79.4861 87.0833H17.5139C12.3055 87.0833 8.08333 82.9482 8.08333 77.8472V17.1528C8.08333 12.0518 12.3055 7.91667 17.5139 7.91667Z" fill="white"/>
</svg>
