<svg width="30" height="30" viewBox="0 0 30 30" fill="none" xmlns="http://www.w3.org/2000/svg">
<path d="M15.33 30C9.553 30 4.388 26.797 1.849 21.642C0.827998 19.565 0.309998 17.331 0.309998 15C0.309998 12.667 0.828997 10.431 1.85 8.356C4.389 3.202 9.553 0 15.33 0C18.99 0 22.412 1.296 25.228 3.748C25.333 3.839 25.395 3.969 25.4 4.108C25.404 4.247 25.351 4.381 25.254 4.479L21.029 8.697C20.847 8.878 20.557 8.892 20.359 8.73C18.92 7.553 17.179 6.931 15.33 6.931C11.833 6.931 8.75 9.155 7.66 12.464C7.389 13.291 7.25 14.144 7.25 15C7.25 15.854 7.387 16.705 7.658 17.53C8.75 20.842 11.832 23.068 15.33 23.068C17.074 23.068 18.648 22.656 19.886 21.877C20.74 21.338 21.42 20.639 21.907 19.796C22.046 19.557 22.35 19.475 22.591 19.613C22.83 19.752 22.912 20.057 22.775 20.297C22.205 21.281 21.414 22.097 20.421 22.723C19.024 23.603 17.265 24.068 15.332 24.068C11.402 24.068 7.937 21.566 6.71 17.842C6.404 16.916 6.25 15.96 6.25 15C6.25 14.037 6.404 13.079 6.711 12.151C7.936 8.431 11.4 5.931 15.33 5.931C17.263 5.931 19.088 6.533 20.635 7.677L24.161 4.156C21.611 2.089 18.568 1 15.33 1C9.938 1 5.115 3.988 2.747 8.797C1.793 10.734 1.31 12.821 1.31 15C1.31 17.176 1.793 19.263 2.747 21.2C5.115 26.011 9.938 29 15.33 29C18.795 29 22.033 27.764 24.451 25.52C27.224 22.945 28.69 19.308 28.69 15C28.69 14.399 28.619 13.728 28.478 13H16V17.466H23.118C23.394 17.466 23.618 17.69 23.618 17.966C23.618 18.242 23.394 18.466 23.118 18.466H15.5C15.224 18.466 15 18.242 15 17.966V12.5C15 12.224 15.224 12 15.5 12H28.885C29.119 12 29.323 12.163 29.373 12.392C29.584 13.342 29.69 14.22 29.69 15C29.69 19.593 28.113 23.484 25.13 26.253C22.528 28.669 19.048 30 15.33 30Z" fill="white"/>
<path d="M3.288 23.019C3.138 23.019 2.989 22.952 2.891 22.823C2.723 22.604 2.765 22.29 2.984 22.122L7.484 18.678C7.703 18.511 8.018 18.553 8.185 18.771C8.353 18.99 8.311 19.304 8.092 19.472L3.592 22.916C3.5 22.985 3.394 23.019 3.288 23.019Z" fill="white"/>
<path d="M7.104 13.09C6.997 13.09 6.888 13.055 6.797 12.984L1.88 9.14401C1.662 8.97401 1.624 8.66001 1.793 8.44201C1.962 8.22401 2.277 8.18501 2.495 8.35601L7.412 12.196C7.63 12.366 7.668 12.68 7.498 12.898C7.4 13.024 7.253 13.09 7.104 13.09Z" fill="white"/>
<path d="M24.585 26.559C24.478 26.559 24.37 26.525 24.279 26.454L19.597 22.825C19.379 22.656 19.339 22.342 19.508 22.124C19.677 21.906 19.992 21.866 20.209 22.035L24.891 25.664C25.109 25.833 25.149 26.147 24.98 26.365C24.882 26.493 24.734 26.559 24.585 26.559Z" fill="white"/>
</svg>
