<svg width="53" height="53" viewBox="0 0 53 53" fill="none" xmlns="http://www.w3.org/2000/svg">
<path fill-rule="evenodd" clip-rule="evenodd" d="M33.386 52.888C51.071 52.3771 52.8115 48.6544 52.8115 27.5201C52.8115 4.20008 50.6915 2.08008 27.3715 2.08008C4.05159 2.08008 1.93159 4.20008 1.93159 27.5201C1.93159 48.7095 3.68271 52.3962 21.4949 52.8923C21.6496 52.6994 21.7069 52.4577 21.7069 52.2118C21.7069 51.6818 21.6857 46.2418 21.6751 44.3699C15.2367 45.7246 13.8778 41.3616 13.8778 41.3616C12.8242 38.771 11.3062 38.0798 11.3062 38.0798C9.20531 36.6891 11.4652 36.7167 11.4652 36.7167C13.7887 36.8757 15.012 39.0296 15.012 39.0296C17.0769 42.4576 20.4307 41.4676 21.7493 40.8931C21.9592 39.4451 22.557 38.4551 23.2184 37.8954C18.0775 37.3294 12.6736 35.4044 12.6736 26.8078C12.6736 24.3592 13.5767 22.3579 15.0565 20.7891C14.8169 20.2209 14.0241 17.9398 15.2833 14.8531C15.2833 14.8531 17.2274 14.2489 21.6496 17.1512C23.4962 16.653 25.4762 16.4049 27.4457 16.3964C29.411 16.4049 31.391 16.653 33.2418 17.1512C37.662 14.2489 39.6018 14.8531 39.6018 14.8531C40.8653 17.9398 40.0703 20.2209 39.8308 20.7891C41.3148 22.3579 42.2115 24.3592 42.2115 26.8078C42.2115 35.4256 36.7992 37.323 31.6412 37.8763C32.4722 38.5696 33.2121 39.9391 33.2121 42.0315C33.2121 44.037 33.1994 47.5838 33.1909 49.9349C33.1867 51.0988 33.1846 51.968 33.1846 52.2118C33.1846 52.4428 33.246 52.6866 33.386 52.888Z" fill="white"/>
</svg>
