<svg width="50" height="50" viewBox="0 0 50 50" fill="none" xmlns="http://www.w3.org/2000/svg">
<rect width="50" height="50" rx="10" fill="white"/>
<path d="M25 3.6665C19.2062 3.6665 18.4797 3.69106 16.2043 3.79488C13.9336 3.89853 12.3828 4.25911 11.0257 4.78651C9.6229 5.3317 8.43319 6.06116 7.24721 7.24713C6.06123 8.43311 5.33178 9.62282 4.78659 11.0257C4.25919 12.3826 3.89861 13.9334 3.79496 16.2041C3.69114 18.4795 3.66667 19.206 3.66667 24.9998C3.66667 30.7935 3.69114 31.52 3.79496 33.7954C3.89861 36.0661 4.25919 37.6169 4.78659 38.9739C5.33178 40.3767 6.06123 41.5664 7.24721 42.7525C8.43319 43.9385 9.6229 44.6679 11.0257 45.2131C12.3828 45.7404 13.9336 46.1011 16.2043 46.2046C18.4797 46.3085 19.2062 46.333 25 46.333C30.7937 46.333 31.5202 46.3085 33.7956 46.2046C36.0663 46.1011 37.6171 45.7404 38.974 45.2131C40.3769 44.6679 41.5666 43.9385 42.7526 42.7525C43.9386 41.5664 44.6681 40.3767 45.2133 38.9739C45.7406 37.6169 46.1012 36.0661 46.2048 33.7954C46.3086 31.52 46.3332 30.7935 46.3332 24.9998C46.3332 19.206 46.3086 18.4795 46.2048 16.2041C46.1012 13.9334 45.7406 12.3826 45.2133 11.0257C44.6681 9.62282 43.9386 8.43311 42.7526 7.24713C41.5666 6.06116 40.3769 5.3317 38.974 4.78651C37.6171 4.25911 36.0663 3.89853 33.7956 3.79488C31.5202 3.69106 30.7937 3.6665 25 3.6665ZM25 7.51041C30.6961 7.51041 31.3709 7.53209 33.6204 7.63473C35.7004 7.72966 36.8299 8.07719 37.5817 8.36926C38.5775 8.75626 39.2881 9.21863 40.0346 9.9651C40.7811 10.7116 41.2434 11.4223 41.6304 12.418C41.9226 13.1697 42.2701 14.2993 42.365 16.3793C42.4676 18.6288 42.4894 19.3036 42.4894 24.9998C42.4894 30.696 42.4676 31.3707 42.365 33.6202C42.2701 35.7002 41.9226 36.8298 41.6304 37.5815C41.2434 38.5773 40.7811 39.2879 40.0346 40.0344C39.2881 40.781 38.5775 41.2433 37.5817 41.6303C36.8299 41.9224 35.7004 42.27 33.6204 42.3648C31.3712 42.4674 30.6966 42.4892 25 42.4892C19.3033 42.4892 18.6287 42.4674 16.3795 42.3648C14.2995 42.27 13.1699 41.9224 12.4182 41.6303C11.4224 41.2433 10.7117 40.781 9.96518 40.0344C9.21871 39.2879 8.75634 38.5773 8.36942 37.5815C8.07727 36.8298 7.72973 35.7002 7.6348 33.6202C7.53217 31.3707 7.51049 30.696 7.51049 24.9998C7.51049 19.3036 7.53217 18.6288 7.6348 16.3793C7.72973 14.2993 8.07727 13.1697 8.36942 12.418C8.75634 11.4223 9.21871 10.7116 9.96518 9.9651C10.7117 9.21863 11.4224 8.75626 12.4182 8.36926C13.1699 8.07719 14.2995 7.72966 16.3795 7.63473C18.629 7.53209 19.3037 7.51041 25 7.51041Z" fill="#082048"/>
<path d="M25 32.1109C21.0726 32.1109 17.8888 28.9272 17.8888 24.9999C17.8888 21.0725 21.0726 17.8887 25 17.8887C28.9273 17.8887 32.111 21.0725 32.111 24.9999C32.111 28.9272 28.9273 32.1109 25 32.1109ZM25 14.0449C18.9497 14.0449 14.045 18.9496 14.045 24.9999C14.045 31.0501 18.9497 35.9547 25 35.9547C31.0502 35.9547 35.9548 31.0501 35.9548 24.9999C35.9548 18.9496 31.0502 14.0449 25 14.0449Z" fill="#082048"/>
<path d="M38.9477 13.6122C38.9477 15.0261 37.8015 16.1722 36.3876 16.1722C34.9739 16.1722 33.8277 15.0261 33.8277 13.6122C33.8277 12.1983 34.9739 11.0522 36.3876 11.0522C37.8015 11.0522 38.9477 12.1983 38.9477 13.6122Z" fill="#082048"/>
</svg>
