<svg width="50" height="48" viewBox="0 0 50 48" fill="none" xmlns="http://www.w3.org/2000/svg">
<g clip-path="url(#clip0_48_50)">
<path fill-rule="evenodd" clip-rule="evenodd" d="M43.8912 0C47.2628 0 50 2.62781 50 5.86444V42.1356C50 45.3722 47.2627 48 43.8912 48H6.10879C2.7373 48 0 45.3722 0 42.1356V5.86444C0 2.62781 2.73721 0 6.10879 0H43.8912V0ZM15.67 39.6823V18.5213H8.34189V39.6823H15.67ZM42.0898 39.6823V27.5474C42.0898 21.0474 38.4748 18.0237 33.6542 18.0237C29.7671 18.0237 28.0259 20.076 27.051 21.5174V18.5213H19.7247C19.8219 20.5071 19.7247 39.6823 19.7247 39.6823H27.0509V27.8646C27.0509 27.2319 27.0983 26.5997 27.2925 26.1475C27.8212 24.8843 29.0275 23.5756 31.0517 23.5756C33.7016 23.5756 34.7633 25.5169 34.7633 28.3603V39.6823H42.0898ZM12.0555 8.31769C9.54824 8.31769 7.91016 9.90009 7.91016 11.9741C7.91016 14.0046 9.49844 15.6306 11.9585 15.6306H12.0058C14.5609 15.6306 16.1515 14.0046 16.1515 11.9741C16.1041 9.903 14.5654 8.32219 12.0555 8.31769Z" fill="white"/>
</g>
<defs>
<clipPath id="clip0_48_50">
<rect width="50" height="48" fill="white"/>
</clipPath>
</defs>
</svg>
